<svg width="9" height="3" viewBox="0 0 9 3" fill="none" xmlns="http://www.w3.org/2000/svg">
<path d="M0.933594 1.43164C0.933594 1.24414 0.988281 1.08789 1.09766 0.962891C1.21094 0.837891 1.37891 0.775391 1.60156 0.775391C1.82422 0.775391 1.99219 0.837891 2.10547 0.962891C2.22266 1.08789 2.28125 1.24414 2.28125 1.43164C2.28125 1.61133 2.22266 1.76172 2.10547 1.88281C1.99219 2.00391 1.82422 2.06445 1.60156 2.06445C1.37891 2.06445 1.21094 2.00391 1.09766 1.88281C0.988281 1.76172 0.933594 1.61133 0.933594 1.43164Z" fill="#CDCDCD"/>
<path d="M3.99219 1.16797C3.99219 0.898438 4.08203 0.679688 4.26172 0.511719C4.44531 0.34375 4.67383 0.259766 4.94727 0.259766C5.22461 0.259766 5.45312 0.34375 5.63281 0.511719C5.81641 0.679688 5.9082 0.898438 5.9082 1.16797C5.9082 1.43359 5.81836 1.65039 5.63867 1.81836C5.45898 1.98242 5.22852 2.06445 4.94727 2.06445C4.66992 2.06445 4.44141 1.98242 4.26172 1.81836C4.08203 1.65039 3.99219 1.43359 3.99219 1.16797Z" fill="#CDCDCD"/>
<path d="M7.58984 1.43164C7.58984 1.24414 7.64453 1.08789 7.75391 0.962891C7.86719 0.837891 8.03516 0.775391 8.25781 0.775391C8.48047 0.775391 8.64844 0.837891 8.76172 0.962891C8.87891 1.08789 8.9375 1.24414 8.9375 1.43164C8.9375 1.61133 8.87891 1.76172 8.76172 1.88281C8.64844 2.00391 8.48047 2.06445 8.25781 2.06445C8.03516 2.06445 7.86719 2.00391 7.75391 1.88281C7.64453 1.76172 7.58984 1.61133 7.58984 1.43164Z" fill="#CDCDCD"/>
<path d="M3.99219 1.16797C3.99219 0.898438 4.08203 0.679688 4.26172 0.511719C4.44531 0.34375 4.67383 0.259766 4.94727 0.259766C5.22461 0.259766 5.45312 0.34375 5.63281 0.511719C5.81641 0.679688 5.9082 0.898438 5.9082 1.16797C5.9082 1.43359 5.81836 1.65039 5.63867 1.81836C5.45898 1.98242 5.22852 2.06445 4.94727 2.06445C4.66992 2.06445 4.44141 1.98242 4.26172 1.81836C4.08203 1.65039 3.99219 1.43359 3.99219 1.16797Z" fill="#CDCDCD"/>
<path d="M3.99219 1.16797C3.99219 0.898438 4.08203 0.679688 4.26172 0.511719C4.44531 0.34375 4.67383 0.259766 4.94727 0.259766C5.22461 0.259766 5.45312 0.34375 5.63281 0.511719C5.81641 0.679688 5.9082 0.898438 5.9082 1.16797C5.9082 1.43359 5.81836 1.65039 5.63867 1.81836C5.45898 1.98242 5.22852 2.06445 4.94727 2.06445C4.66992 2.06445 4.44141 1.98242 4.26172 1.81836C4.08203 1.65039 3.99219 1.43359 3.99219 1.16797Z" fill="#53A6E2"/>
<path d="M3.99219 1.16797C3.99219 0.898438 4.08203 0.679688 4.26172 0.511719C4.44531 0.34375 4.67383 0.259766 4.94727 0.259766C5.22461 0.259766 5.45312 0.34375 5.63281 0.511719C5.81641 0.679688 5.9082 0.898438 5.9082 1.16797C5.9082 1.43359 5.81836 1.65039 5.63867 1.81836C5.45898 1.98242 5.22852 2.06445 4.94727 2.06445C4.66992 2.06445 4.44141 1.98242 4.26172 1.81836C4.08203 1.65039 3.99219 1.43359 3.99219 1.16797Z" fill="#53A6E2"/>
</svg>
