<?xml version="1.0" encoding="UTF-8"?>
<!DOCTYPE svg PUBLIC "-//W3C//DTD SVG 1.1//EN" "http://www.w3.org/Graphics/SVG/1.1/DTD/svg11.dtd">
<!-- Creator: CorelDRAW 2018 (64-Bit Wersja próbna) -->
<svg xmlns="http://www.w3.org/2000/svg" xml:space="preserve" width="100mm" height="39mm" version="1.1" style="shape-rendering:geometricPrecision; text-rendering:geometricPrecision; image-rendering:optimizeQuality; fill-rule:evenodd; clip-rule:evenodd"
viewBox="0 0 10000 3900"
 xmlns:xlink="http://www.w3.org/1999/xlink">
 <defs>
  <style type="text/css">
   <![CDATA[
    .fil1 {fill:#EB6A79}
    .fil0 {fill:#FEFEFE;fill-rule:nonzero}
   ]]>
  </style>
 </defs>
 <g id="Warstwa_x0020_1">
  <metadata id="CorelCorpID_0Corel-Layer"/>
  <g id="_2870610147536">
   <path class="fil0" d="M732.74 3170.84l-4.35 495.67 46.92 0 491.08 -522.95c246.48,-3.47 493.08,-6.46 739.53,-10.69l5.09 0.67c0.67,0.06 248.09,35.2 246.99,-203.09 -3.38,-722.35 -7.12,-731.34 -7.12,-731.46l0 -76.62 211 2.1 525.24 578.02 3.14 -565.96c130.7,-1.15 341.09,-17.51 456.14,-3.71 0.49,0.06 180.95,25.24 177.96,-215.66 -1.82,-5.3 -9.01,-1459.79 0.31,-1546.55 0.06,-0.58 26.74,-215.82 -217.16,-218.28 -321.36,-3.26 -1886.45,6.52 -1960.08,6.94 -0.43,0.03 -158.75,2.19 -158.75,182.71l0 967.47 -133.05 -3.84c-262.43,2.14 -574.2,20.16 -830.61,6.67 -0.46,-0.03 -172.76,-15.68 -172.76,135.91 0,242.95 16.45,1469.62 16.48,1473.07l0.09 5.78 -0.67 5.21c-0.03,0.43 -21.93,157.68 162.61,161.12 190.79,3.56 325.96,0.73 326.15,0.73l76.49 0 -0.67 76.74zm-156.67 571.19l4.32 -493.72c-47.99,-0.12 -125.86,-0.94 -251.99,-3.29 -327.82,-6.12 -315.46,-282.2 -311.38,-326.41 -1.18,-84.97 -17.02,-1251.32 -17.02,-1470.42 0,-311.22 321.55,-288.84 336.89,-287.62l799.53 -6.49 0 -812.1c0,-329.7 303.67,-334.3 304.49,-334.33l2.95 0c4.66,0 1635.56,-10.32 1964.87,-6.97 382.66,3.89 371.55,329.37 367.59,379.52l0 1536.07c4.08,393.44 -309.73,371.55 -344.57,367.96l-290.66 2.62 -3.38 601.37 -194.29 -7.74 -538.58 -592.72c1.28,92.24 3.11,276.93 4.82,642.08 1.79,386.65 -363.18,360.13 -412.24,354.83l-664.19 9.63 -492.56 524.47 -265.3 0 0.7 -76.74z"/>
   <path class="fil0" d="M2384.26 2276.16l-865.42 -19.89c-1.04,-0.09 -371.06,-31.3 -378.89,-497.56 -7.34,-436.8 -3.41,-491.1 -3.41,-491.34l152.26 0c0,0.27 -3.23,130.12 2.8,488.97 5.27,312.5 218.41,346.03 240.79,348.67l854.85 19.49 -2.98 151.66z"/>
   <path class="fil1" d="M1920.14 959.95c0,24.42 1.19,40.48 6.12,63.6 1.17,5.49 2.26,10.32 3.85,15l9.69 27.38c1.01,2.57 1.66,3.69 2.75,6.04 1.16,2.49 1.7,4.06 2.93,6.5l6.42 12.42c9.8,16.25 18.61,29.18 30.63,43.51l377.49 378.35c1.06,1.06 1.38,1.22 2.54,2.48l15.97 16.07c1.67,1.51 1.1,1.17 2.48,2.56l11.58 11.66c15.76,15.7 67.72,69 72.39,72.12 3.16,-0.85 7.2,-6.26 9.58,-8.64 3.3,-3.29 6.13,-6.13 9.43,-9.42l58.36 -58.5c0.09,-0.09 0.23,-0.21 0.33,-0.3l2.19 -2.21c0.08,-0.09 0.21,-0.23 0.31,-0.32l27.49 -27.8c0.13,-0.13 0.5,-0.49 0.63,-0.62l3.14 -3.14c11.92,-12.86 24.88,-25.03 37.32,-37.45 49.69,-49.68 98.92,-98.89 148.62,-148.57l189.36 -190.75 12.3 -15.97c8.07,-10.87 14.76,-22.98 20.86,-35.06l5.89 -12.96c5.54,-14 9.89,-27.19 13.37,-41.91 5.06,-21.38 6.29,-41.4 6.29,-64.07 0,-20.22 -3.48,-37.53 -7.18,-54.39 -3.89,-17.73 -12.71,-40.63 -21.3,-55.96 -7.62,-13.6 -11.88,-20.39 -20.65,-33.38 -1.26,-1.87 -1.92,-2.39 -3.31,-4.24 -4.44,-5.91 -9.14,-11.91 -14.33,-17.08l-13.45 -13.57c-7.39,-6.76 -14.71,-13.42 -22.84,-19.25l-23.53 -15.43c-3.58,-2.16 -6.62,-3.46 -10.14,-5.56 -3.9,-2.34 -6.4,-3.18 -10.54,-5.18 -30.11,-14.46 -66.52,-23.46 -100.33,-23.46 -24.7,0 -41.67,1.38 -65.62,6.65 -18.52,4.07 -36.81,10.79 -53.79,19.1 -3.34,1.63 -6.08,3.38 -9.42,5.03 -3.23,1.59 -5.92,3.36 -9.15,5.3 -3.48,2.09 -5.93,3.8 -9.19,5.89 -8.75,5.6 -17.39,11.91 -25.17,18.82l-7.86 7.21c-1.22,1.23 -2.18,2.34 -3.49,3.43l-11.03 10.95c-2.03,2.24 -8.22,7.35 -11.03,10.97 -1.75,2.25 -2.21,1.74 -4,3.53 -1.54,1.54 -1.44,2.27 -3.12,3.79 -2.03,1.85 -2.12,1.18 -3.94,3.6 -1.47,1.96 -1.42,1.83 -3.51,3.41 -2.25,1.71 -1.96,2.05 -3.57,3.96 -1.56,1.85 -2.27,1.69 -3.75,3.17 -1.6,1.61 -1.43,2.38 -3.52,4.02l-7.75 7.33c-1.85,1.54 -1.54,2.1 -3.18,3.73 -1.79,1.79 -2.25,1.29 -4,3.54 -1.37,1.76 -1.57,2.24 -3.31,3.6l-44.27 44.32c-1.28,1.55 -2.14,2.78 -4.2,3.33 -3.01,-2.01 -7.92,-7.97 -10.66,-10.7l-7.29 -7.16c-2.79,-2.15 -8.75,-9.35 -11.22,-11.4l-10.68 -10.68c-1.49,-1.78 -2.37,-1.79 -4,-3.54 -1.26,-1.34 -1.77,-2.57 -3.18,-3.73l-22 -21.99c-1.64,-2.07 -2.42,-1.91 -4.02,-3.52 -1.48,-1.48 -1.31,-2.18 -3.17,-3.74 -2.28,-1.91 -1.86,-1.02 -3.86,-3.67 -1.52,-2 -1.96,-2.17 -3.88,-3.66 -2.25,-1.76 -1.74,-2.22 -3.53,-4.01 -1.64,-1.63 -2.2,-1.32 -3.74,-3.17l-22.33 -22.28c-1.4,-1.17 -2.5,-2.43 -3.8,-3.74 -8.5,-8.61 -18.51,-15.41 -28.16,-22.73 -9.53,-7.23 -21.18,-13.68 -31.9,-19 -2,-0.99 -3.22,-1.35 -5.25,-2.29l-15.38 -6.61c-3.59,-1.45 -6.67,-2.77 -10.51,-3.94 -7.82,-2.39 -14.22,-4.53 -23.06,-6.47 -17.13,-3.77 -33.85,-6.04 -50.72,-6.65l-18.33 0c-8.12,0.3 -16.33,0.98 -24.67,2.07 -20.93,2.75 -41.29,8.59 -60.87,16.42 -10.97,4.38 -21.13,9.18 -31.26,15.24 -13.71,8.19 -23.91,15.79 -36.25,25.32l-11.24 10.13c-0.09,0.09 -0.23,0.22 -0.32,0.3 -9.56,8.84 -18.55,18.48 -26.33,28.97l-18.79 27.7c-4.07,6.74 -7.22,13.6 -10.77,20.64 -5.28,10.49 -9.12,22.35 -12.91,33.58 -6.59,19.49 -10.76,44.58 -10.76,67.13z"/>
   <path class="fil0" d="M5297.53 1292.26c12.66,0 23.41,4.42 32.27,13.28 8.86,8.86 13.29,19.62 13.29,32.27l0 231.59c0,34.17 -0.95,70.24 -2.85,108.2 -1.9,37.97 -6.64,74.98 -14.24,111.05 -7.59,36.07 -19.61,70.56 -36.07,103.46 -16.45,32.9 -39.23,61.38 -68.33,85.42 -29.11,24.04 -63.6,42.39 -103.46,55.05 -39.86,12.66 -81.31,22.14 -124.33,28.47 -43.03,6.33 -86.38,10.13 -130.03,11.39 -43.67,1.27 -83.21,1.9 -118.65,1.9 -108.83,0 -201.85,-7.27 -279.05,-21.83 -77.19,-14.55 -140.15,-42.08 -188.87,-82.57 -48.72,-40.5 -84.48,-96.5 -107.25,-168 -22.78,-71.5 -34.17,-164.83 -34.17,-280l0 -294.22c0,-126.56 14.87,-226.22 44.61,-298.98 29.74,-72.77 73.08,-127.5 130.03,-164.2 56.95,-36.71 127.18,-59.8 210.71,-69.29 83.52,-9.49 179.7,-14.24 288.53,-14.24 81,0 154.4,4.11 220.2,12.34 65.81,8.23 121.81,26.89 168,56 46.19,29.11 81.62,71.5 106.3,127.18 24.68,55.68 37.02,130.98 37.02,225.9 0,16.45 -2.53,31.64 -7.59,45.56 -5.07,13.92 -17.72,20.88 -37.97,20.88l-244.88 0c-20.24,0 -32.9,-6.96 -37.96,-20.88 -5.06,-13.92 -8.23,-30.37 -9.5,-49.36 -1.26,-18.98 -3.79,-37.65 -7.59,-56 -3.79,-18.35 -15.18,-31.95 -34.17,-40.81 -11.39,-5.06 -26.26,-9.18 -44.6,-12.34 -18.35,-3.16 -37.02,-5.06 -56,-5.69 -18.99,-0.64 -37.97,-0.95 -56.95,-0.95 -18.98,0 -34.81,0 -47.46,0 -13.92,0 -32.58,0 -56,0 -23.41,0 -47.14,1.26 -71.18,3.79 -24.05,2.54 -46.83,6.33 -68.34,11.39 -21.51,5.06 -37.97,13.29 -49.36,24.68 -10.12,10.12 -17.71,24.05 -22.78,41.76 -5.06,17.72 -8.85,36.7 -11.39,56.95 -2.52,20.25 -3.79,40.18 -3.79,59.79 0,19.62 0,35.76 0,48.41l0 292.33c0,62.02 3.16,109.79 9.49,143.32 6.33,33.54 18.98,58.22 37.97,74.04 18.98,15.82 46.19,25.31 81.62,28.47 35.44,3.16 82.89,4.75 142.37,4.75 12.65,0 29.11,0 49.36,0 20.25,0 40.81,-0.63 61.69,-1.9 20.88,-1.27 40.5,-3.48 58.85,-6.65 18.35,-3.16 33.22,-8.54 44.61,-16.13 11.39,-7.59 20.24,-18.98 26.57,-34.17 6.33,-15.19 10.76,-31.64 13.29,-49.36 2.53,-17.71 4.11,-35.11 4.75,-52.2 0.63,-17.08 0.95,-31.32 0.95,-42.71l-277.15 0c-12.66,0 -23.42,-4.43 -32.27,-13.29 -8.86,-8.86 -13.29,-19.61 -13.29,-32.27l0 -186.03c0,-12.65 4.43,-23.41 13.29,-32.27 8.85,-8.86 19.61,-13.28 32.27,-13.28l569.48 0zm693.93 -309.42l0 787.78 64.54 17.08c10.13,2.53 18.35,7.91 24.68,16.14 6.33,8.22 9.49,17.4 9.49,27.52l0 186.03c0,13.92 -4.43,25 -13.28,33.22 -8.87,8.23 -20.26,12.34 -34.17,12.34l-440.4 0c-12.66,0 -23.42,-4.11 -32.27,-12.34 -8.86,-8.22 -13.29,-19.3 -13.29,-33.22l0 -186.03c0,-22.78 11.39,-37.33 34.17,-43.66l62.64 -17.08 0 -787.78 -62.64 -15.19c-22.78,-6.33 -34.17,-21.51 -34.17,-45.56l0 -186.03c0,-12.65 4.43,-23.41 13.29,-32.27 8.85,-8.86 19.61,-13.28 32.27,-13.28l440.4 0c13.91,0 25.3,4.42 34.17,13.28 8.85,8.86 13.28,19.62 13.28,32.27l0 186.03c0,10.12 -3.16,19.62 -9.49,28.48 -6.33,8.86 -14.55,14.55 -24.68,17.08l-64.54 15.19zm1267.21 -292.33c12.65,0 23.41,4.42 32.27,13.28 8.86,8.86 13.29,19.62 13.29,32.27l0 307.52c0,12.66 -4.43,23.41 -13.29,32.27 -8.86,8.86 -19.62,13.29 -32.27,13.29l-186.03 0c-10.12,0 -19.3,-3.16 -27.52,-9.49 -8.23,-6.33 -13.61,-14.55 -16.14,-24.68l-17.08 -62.64 -309.42 0 0 248.67 271.45 0c12.66,0 23.41,4.43 32.27,13.29 8.86,8.86 13.29,19.62 13.29,32.27l0 201.21c0,13.93 -4.43,25 -13.29,33.23 -8.86,8.22 -19.61,12.33 -32.27,12.33l-271.45 0 0 237.29 62.64 17.08c22.78,6.33 34.17,20.88 34.17,43.66l0 186.03c0,12.66 -4.43,23.42 -13.29,32.27 -8.86,8.86 -19.61,13.29 -32.27,13.29l-440.4 0c-12.65,0 -23.41,-4.43 -32.27,-13.29 -8.86,-8.85 -13.29,-19.61 -13.29,-32.27l0 -186.03c0,-10.12 3.17,-19.3 9.5,-27.52 6.32,-8.23 14.55,-13.61 24.67,-16.14l62.65 -17.08 0 -787.78 -62.65 -17.09c-10.12,-2.53 -18.35,-7.91 -24.67,-16.13 -6.33,-8.23 -9.5,-17.41 -9.5,-27.53l0 -186.03c0,-10.12 4.43,-20.88 13.29,-32.27 11.39,-8.86 22.15,-13.28 32.27,-13.28l945.34 0zm1322.26 -3.8c10.13,0 20.88,4.43 32.27,13.28 8.86,11.39 13.29,22.15 13.29,32.28l0 307.83c0,12.34 -4.43,23.1 -13.29,31.95 -8.86,8.86 -19.61,13.29 -32.27,13.29l-186.03 0c-10.12,0 -19.61,-3.16 -28.47,-9.17 -8.86,-6.33 -14.55,-14.55 -17.09,-24.36l-15.18 -63.28 -83.53 0 0 778.29 62.64 17.09c22.78,6.32 34.17,20.88 34.17,43.66l0 186.02c0,13.93 -4.43,25 -13.28,33.23 -8.86,8.22 -19.62,12.33 -32.27,12.33l-440.4 0c-13.92,0 -25,-4.11 -33.22,-12.33 -8.23,-8.23 -12.34,-19.3 -12.34,-33.23l0 -186.02c0,-22.78 11.39,-37.34 34.17,-43.66l62.64 -17.09 0 -778.29 -83.52 0 -15.19 63.28c-2.53,9.81 -8.23,18.03 -17.08,24.36 -8.86,6.01 -18.35,9.17 -28.48,9.17l-186.03 0c-12.65,0 -23.41,-4.43 -32.27,-13.29 -8.86,-8.85 -13.29,-19.61 -13.29,-31.95l0 -307.83c0,-10.13 4.43,-20.89 13.29,-32.28 11.39,-8.85 22.15,-13.28 32.27,-13.28l998.49 0zm1373.51 1.9c12.66,0 23.41,4.11 32.28,12.33 8.85,8.23 13.28,19.3 13.28,33.22l0 186.03c0,22.78 -11.39,37.34 -34.17,43.66l-74.03 18.99 -332.19 552.39 0 231.59c8.85,2.53 18.66,4.75 29.42,6.65 10.75,1.89 21.19,5.06 31.32,9.49 10.13,4.43 18.67,10.12 25.63,17.08 6.95,6.96 10.43,16.14 10.43,27.53l0 186.02c0,13.93 -4.42,25 -13.28,33.23 -8.86,8.22 -19.62,12.33 -32.27,12.33l-442.3 0c-12.65,0 -23.41,-4.11 -32.27,-12.33 -8.86,-8.23 -13.29,-19.3 -13.29,-33.23l0 -186.02c0,-11.39 3.48,-20.57 10.44,-27.53 6.96,-6.96 15.5,-12.65 25.63,-17.08 10.13,-4.43 20.88,-7.6 32.27,-9.49 11.39,-1.9 21.51,-4.12 30.37,-6.65l0 -231.59 -324.6 -552.39 -77.83 -18.99c-10.13,-2.53 -18.35,-8.22 -24.68,-17.08 -6.33,-8.86 -9.49,-18.35 -9.49,-28.47l0 -186.03c0,-12.66 4.43,-23.42 13.29,-32.28 8.86,-8.85 19.62,-13.28 32.27,-13.28l467.29 0c12.65,0 23.41,4.43 32.27,13.28 8.86,8.86 13.29,19.62 13.29,32.28l0 186.03c0,21.51 -8.23,35.11 -24.68,40.81 -16.45,5.69 -32.9,10.44 -49.35,14.23l122.12 218.31 124.02 -218.31c-16.45,-3.79 -32.91,-8.22 -49.36,-13.28 -16.45,-5.06 -24.67,-18.35 -24.67,-39.87l0 -186.03c0,-13.92 4.43,-24.99 13.28,-33.22 8.86,-8.22 19.62,-12.33 32.28,-12.33l467.28 0z"/>
  </g>
 </g>
</svg>
