<svg width="30" height="30" viewBox="0 0 30 30" fill="none" xmlns="http://www.w3.org/2000/svg">
<rect width="30" height="30" rx="10" fill="#574148"/>
<path d="M14.5 10.1875C10.9584 10.1875 7.93379 12.3904 6.70837 15.5C7.93379 18.6096 10.9584 20.8125 14.5 20.8125C18.0417 20.8125 21.0663 18.6096 22.2917 15.5C21.0663 12.3904 18.0417 10.1875 14.5 10.1875ZM14.5 19.0417C12.545 19.0417 10.9584 17.455 10.9584 15.5C10.9584 13.545 12.545 11.9583 14.5 11.9583C16.455 11.9583 18.0417 13.545 18.0417 15.5C18.0417 17.455 16.455 19.0417 14.5 19.0417ZM14.5 13.375C13.3242 13.375 12.375 14.3242 12.375 15.5C12.375 16.6758 13.3242 17.625 14.5 17.625C15.6759 17.625 16.625 16.6758 16.625 15.5C16.625 14.3242 15.6759 13.375 14.5 13.375Z" fill="white"/>
</svg>
