<svg width="30" height="30" viewBox="0 0 30 30" fill="none" xmlns="http://www.w3.org/2000/svg">
<rect width="30" height="30" rx="10" fill="#485162"/>
<path d="M14.5 11.9583C16.455 11.9583 18.0417 13.545 18.0417 15.5C18.0417 15.9604 17.9496 16.3925 17.7867 16.7963L19.855 18.8646C20.9246 17.9721 21.7675 16.8175 22.2846 15.5C21.0592 12.3904 18.0346 10.1875 14.493 10.1875C13.5013 10.1875 12.5521 10.3646 11.6738 10.6833L13.2038 12.2133C13.6075 12.0504 14.0396 11.9583 14.5 11.9583ZM7.41671 10.0246L9.03171 11.6396L9.35754 11.9654C8.18171 12.8792 7.26087 14.0975 6.70837 15.5C7.93379 18.6096 10.9584 20.8125 14.5 20.8125C15.598 20.8125 16.6463 20.6 17.6025 20.2175L17.9 20.515L19.9755 22.5833L20.875 21.6838L8.31629 9.125L7.41671 10.0246ZM11.3338 13.9417L12.4317 15.0396C12.3963 15.1883 12.375 15.3442 12.375 15.5C12.375 16.6758 13.3242 17.625 14.5 17.625C14.6559 17.625 14.8117 17.6038 14.9605 17.5683L16.0584 18.6663C15.5838 18.9 15.0596 19.0417 14.5 19.0417C12.545 19.0417 10.9584 17.455 10.9584 15.5C10.9584 14.9404 11.1 14.4163 11.3338 13.9417ZM14.3867 13.3892L16.618 15.6204L16.6321 15.5071C16.6321 14.3313 15.683 13.3821 14.5071 13.3821L14.3867 13.3892Z" fill="white"/>
</svg>
